# xmcd CD database file
#
# Track frame offsets:
#	150
#	35526
#	73053
#	106158
#	136851
#	171296
#	202888
#	233579
#	266609
#
# Disc length: 3906 seconds
#
# Revision: 0
# Processed by: cddbd v1.5.2PL0 Copyright (c) Steve Scherf et al.
# Submitted via: CDex 1.70beta2
#
DISCID=750f4009
DTITLE=Dean Evenson and Tom Barabas  - Healing Suite 
DYEAR=2009
DGENRE=New Age
TTITLE0=01 Smooth Glide
TTITLE1=02 Sweet Light
TTITLE2=03 Big Love Story
TTITLE3=04 Dream Space
TTITLE4=05 Inner Vista
TTITLE5=06 Slow and Easty
TTITLE6=07 Gentle Wind
TTITLE7=08 Graceful Sky
TTITLE8=09 Sacred Surrender
EXTD=YEAR: 2009
EXTT0=
EXTT1=
EXTT2=
EXTT3=
EXTT4=
EXTT5=
EXTT6=
EXTT7=
EXTT8=
PLAYORDER=
